<mxfile host="jupyterhub-redhat-ods-applications.apps.buaws-dev.idu6.p1.openshiftapps.com" modified="2022-11-08T19:21:00.070Z" agent="5.0 (Macintosh; Intel Mac OS X 10_15_7) AppleWebKit/537.36 (KHTML, like Gecko) Chrome/106.0.0.0 Safari/537.36" version="16.4.5" etag="cm0_3vsf-IwaSwPeGTtS" type="embed"><diagram id="h6H0NI_cSQ0zptAeN7X2" name="Page-1"><mxGraphModel dx="1441" dy="893" grid="1" gridSize="10" guides="1" tooltips="1" connect="1" arrows="1" fold="1" page="1" pageScale="1" pageWidth="850" pageHeight="1100" math="0" shadow="0"><root><mxCell id="0"/><mxCell id="1" parent="0"/><UserObject label="CPU" treeRoot="1" id="7"><mxCell style="align=center;collapsible=0;container=1;recursiveResize=0;fontSize=18;" vertex="1" parent="1"><mxGeometry x="190" y="170" width="150" height="90" as="geometry"/></mxCell></UserObject><mxCell id="9" style="edgeStyle=none;rounded=0;orthogonalLoop=1;jettySize=auto;entryX=0.5;entryY=1;entryDx=0;entryDy=0;fontSize=18;shape=link;strokeWidth=4;" edge="1" parent="1" source="8" target="7"><mxGeometry relative="1" as="geometry"/></mxCell><UserObject label="Memory" treeRoot="1" id="8"><mxCell style="align=center;collapsible=0;container=1;recursiveResize=0;fontSize=18;" vertex="1" parent="1"><mxGeometry x="190" y="290" width="150" height="70" as="geometry"/></mxCell></UserObject><mxCell id="12" value="" style="shape=cylinder3;boundedLbl=1;backgroundOutline=1;size=15;fontSize=18;" vertex="1" parent="1"><mxGeometry x="505" y="330" width="60" height="60" as="geometry"/></mxCell><mxCell id="13" value="" style="shape=link;rounded=0;fontSize=18;strokeWidth=1;" edge="1" parent="1"><mxGeometry width="100" relative="1" as="geometry"><mxPoint x="340" y="229.5" as="sourcePoint"/><mxPoint x="540" y="230" as="targetPoint"/></mxGeometry></mxCell><mxCell id="18" style="edgeStyle=none;shape=link;rounded=0;orthogonalLoop=1;jettySize=auto;exitX=0.5;exitY=1;exitDx=0;exitDy=0;fontSize=18;strokeWidth=1;" edge="1" parent="1" source="14" target="17"><mxGeometry relative="1" as="geometry"/></mxCell><mxCell id="20" style="edgeStyle=none;shape=link;rounded=0;orthogonalLoop=1;jettySize=auto;exitX=0.5;exitY=0;exitDx=0;exitDy=0;fontSize=18;strokeWidth=1;" edge="1" parent="1" source="14"><mxGeometry relative="1" as="geometry"><mxPoint x="415" y="230" as="targetPoint"/></mxGeometry></mxCell><UserObject label="Network&#10;Controller" treeRoot="1" id="14"><mxCell style="align=center;collapsible=0;container=1;recursiveResize=0;fontSize=18;" vertex="1" parent="1"><mxGeometry x="370" y="250" width="90" height="60" as="geometry"/></mxCell></UserObject><mxCell id="19" style="edgeStyle=none;shape=link;rounded=0;orthogonalLoop=1;jettySize=auto;exitX=0.5;exitY=1;exitDx=0;exitDy=0;fontSize=18;strokeWidth=1;" edge="1" parent="1" source="16" target="12"><mxGeometry relative="1" as="geometry"/></mxCell><mxCell id="21" style="edgeStyle=none;shape=link;rounded=0;orthogonalLoop=1;jettySize=auto;exitX=0.5;exitY=0;exitDx=0;exitDy=0;fontSize=18;strokeWidth=1;" edge="1" parent="1" source="16"><mxGeometry relative="1" as="geometry"><mxPoint x="535" y="230" as="targetPoint"/></mxGeometry></mxCell><UserObject label="Disk&#10;Controller" treeRoot="1" id="16"><mxCell style="align=center;collapsible=0;container=1;recursiveResize=0;fontSize=18;" vertex="1" parent="1"><mxGeometry x="490" y="250" width="90" height="60" as="geometry"/></mxCell></UserObject><mxCell id="17" value="" style="sketch=0;pointerEvents=1;shadow=0;dashed=0;strokeColor=none;fillColor=#434445;aspect=fixed;labelPosition=center;verticalLabelPosition=bottom;verticalAlign=top;align=center;outlineConnect=0;shape=mxgraph.vvd.ethernet_port;fontSize=18;" vertex="1" parent="1"><mxGeometry x="390" y="330" width="50" height="50" as="geometry"/></mxCell><mxCell id="22" value="I/O bus" style="text;resizable=0;autosize=1;align=center;verticalAlign=middle;points=[];fillColor=none;strokeColor=none;rounded=0;fontSize=18;" vertex="1" parent="1"><mxGeometry x="450" y="200" width="70" height="30" as="geometry"/></mxCell><mxCell id="23" value="Ethernet" style="text;resizable=0;autosize=1;align=center;verticalAlign=middle;points=[];fillColor=none;strokeColor=none;rounded=0;fontSize=18;" vertex="1" parent="1"><mxGeometry x="370" y="375" width="80" height="30" as="geometry"/></mxCell><mxCell id="24" value="Disk" style="text;resizable=0;autosize=1;align=center;verticalAlign=middle;points=[];fillColor=none;strokeColor=none;rounded=0;fontSize=18;" vertex="1" parent="1"><mxGeometry x="570" y="345" width="50" height="30" as="geometry"/></mxCell></root></mxGraphModel></diagram></mxfile>